<?xml version="1.0" encoding="utf-8"?>
<!-- Svg Vector Icons : http://www.onlinewebfonts.com/icon -->
<!DOCTYPE svg PUBLIC "-//W3C//DTD SVG 1.1//EN" "http://www.w3.org/Graphics/SVG/1.1/DTD/svg11.dtd">
<svg version="1.1" xmlns="http://www.w3.org/2000/svg" xmlns:xlink="http://www.w3.org/1999/xlink" x="0px" y="0px" viewBox="0 0 1000 1000" enable-background="new 0 0 1000 1000" xml:space="preserve">
<metadata> Svg Vector Icons : http://www.onlinewebfonts.com/icon </metadata>
<g><g><g><path d="M617.1,771.4v-28.7c0-4.3-3.5-7.8-7.8-7.8H390.7c-4.3,0-7.8,3.5-7.8,7.8v28.7c0,4.3,3.5,7.8,7.8,7.8h218.6C613.6,779.2,617.1,775.7,617.1,771.4z"/><path d="M422.4,806.6c-4.3,0-7.8,3.5-7.8,7.8v28.7c0,4.3,3.5,7.8,7.8,7.8h155.3c4.3,0,7.8-3.5,7.8-7.8v-28.7c0-4.3-3.5-7.8-7.8-7.8H422.4z"/><path d="M875.6,449.9c-1.7-2.4-4.3-4.1-7.2-4.5l-41.9-6.3c-3.7-0.6-7.4,0.9-9.8,3.7L671.1,619.6c-2.8,3.4-3.2,8.2-1,12c11.9,20.9,24.5,45.5,39.3,77.2l-2,5.7c-15.7,43.7-32.4,81.1-47.1,105.4l-0.6,1c-0.1,0.1-0.2,0.3-0.3,0.4l-0.6,1c-14.9,27.6-38.5,52.6-66.4,70.4c-29.1,18.6-61.1,28.4-92.5,28.4c-68.7,0-129.9-50.8-160.1-101c0,0-0.1-0.2-0.1-0.2c-14.7-24.3-31.4-61.7-47.1-105.3c0,0-0.8-2.4-2-6c14.8-31.6,27.3-56.1,39.2-77c2.2-3.8,1.8-8.6-1-12L184.1,443.9c-2.3-2.8-5.9-4.2-9.5-3.8l-42.8,5.2c-3.1,0.4-5.9,2.1-7.6,4.7c-1.7,2.6-2.2,5.8-1.3,8.8l39.5,133.7c0.9,3.2,3.3,5.7,6.4,6.9c10,3.8,17.7,15,21.7,31.6c0,0.1,0,0.2,0.1,0.3c8.9,33.1,28,89.6,50.5,141.5c13.3,33.4,26.7,61.2,39.7,82.7c37.2,62,117,134.5,219.2,134.5c87.5,0,175.6-54.1,219.3-134.7c13-21.5,26.3-49.3,39.6-82.5c22.5-51.8,41.6-108.4,50.5-141.5c0-0.1,0-0.2,0.1-0.3c4-16.6,11.7-27.8,21.7-31.6c2.3-0.9,4.6-2.4,5.4-4.7l40.6-136.6C877.9,455.3,877.3,452.3,875.6,449.9z"/><path d="M577.6,707.4c4.3,0,7.8-3.5,7.8-7.8v-28.7c0-4.3-3.5-7.8-7.8-7.8H422.4c-4.3,0-7.8,3.5-7.8,7.8v28.7c0,4.3,3.5,7.8,7.8,7.8H577.6z"/><path d="M792.5,427c2.3-2.8,3-6.6,1.9-10c-1.1-3.4-3.9-6.1-7.4-7c-52.5-13.5-93-38.9-120.4-75.5c-20.8-27.7-33.4-60.9-37.6-98.7c-0.4-3.4-2.3-6.4-5.3-8c-2.9-1.7-6.5-1.9-9.6-0.5c-37.2,16.7-92,36.6-141.9,36.6c-20,0-37.8-3.2-52.8-9.7c-21.8-9.3-38.4-24.9-49.4-46.5c-2.2-4.4-7.3-6.7-12.1-5.5C246.2,230.8,203.5,339.6,188,402c-0.8,3.3,0,6.8,2.2,9.4l150.7,177.3c2,2.4,5,3.7,8.1,3.7c0.1,0,0.3,0,0.4,0c3.3-0.1,6.3-1.8,8.2-4.4c41.9-58.2,85.8-84.2,142.4-84.2c56.7,0,100.6,26,142.4,84.2c1.9,2.7,5,4.3,8.3,4.4c3.3,0.1,6.4-1.3,8.5-3.8L792.5,427z"/><path d="M170.7,208.3l4.9,75.4c0.3,5.1,4,9.4,9,10.4c5,1.1,10.1-1.3,12.5-5.9c42.5-80.9,109.1-129.1,192.8-139.3c0,0,12.8-1.7,17.1,2.4c3.6,3.5,6.1,13.7,6.1,13.7c5.1,21.1,15.5,34.8,31.8,41.8c9.5,4,20.9,6.1,34,6.1c57.4,0,139.4-42,162.4-54.3c20.5-10.9,37.2-7.1,31.6,22.4c-1.2,6.2-11.1,66.5,27.4,117.3c22.7,29.9,58.6,49.9,106.7,59.3c3.5,0.5,7.2-0.6,9.2-2.2c2.6-2,4.2-5,4.4-8.3l9-140.1c0,0,5.8-57.9-31.9-106.2C750.2,39.8,645.3,10,500.1,10C355,10,251,40.5,202.5,100.8C163.4,149.4,170.4,197.8,170.7,208.3z"/></g></g><g></g><g></g><g></g><g></g><g></g><g></g><g></g><g></g><g></g><g></g><g></g><g></g><g></g><g></g><g></g></g>
</svg>